#!OML:ASF F:\VICON\USERDATA\INSTALL\rory3\rory3.ASF
:FULLY-SPECIFIED
:DEGREES
349
root 2.86513 18.3141 -3.54177 -175.575 134.111 -186.496
lowerback 15.9025 3.54203 -1.63596
upperback 6.75227 4.51768 -2.15085
thorax -1.66339 2.32234 -2.09901
lowerneck -0.342514 0.917795 -5.02416
upperneck 32.7437 1.27872 5.87346
head 10.4213 0.89736 3.17679
rclavicle 5.96354e-015 -7.15625e-015
rhumerus -38.9672 -2.42244 -74.5582
rradius 42.5943
rwrist 17.5566
rhand -19.1296 5.75637
rfingers 7.12502
rthumb 7.18007 -24.1018
lclavicle 5.96354e-015 -7.15625e-015
lhumerus -34.1343 0.486627 69.2643
lradius 35.0156
lwrist -14.3431
lhand -26.2889 20.0624
lfingers 7.12502
lthumb 0.266716 50.042
rfemur -27.0181 13.4609 3.33301
rtibia 32.7164
rfoot -7.53382 -9.06627
rtoes -2.28377
lfemur -31.1029 -1.34255 -7.24257
ltibia 35.9836
lfoot -11.9198 -0.467748
ltoes -3.32414
350
root 2.85941 18.3143 -3.58012 -175.423 133.747 -186.429
lowerback 16.0108 3.4425 -1.81848
upperback 6.90872 4.36978 -2.08713
thorax -1.57614 2.24773 -1.90632
lowerneck -0.351084 0.832157 -5.11193
upperneck 32.5869 1.19695 5.73518
head 10.3699 0.833423 3.1295
rclavicle 3.93594e-014 -2.46493e-014
rhumerus -38.9401 -1.69612 -74.8129
rradius 42.7587
rwrist 17.2471
rhand -18.7836 5.4267
rfingers 7.12502
rthumb 7.51399 -24.4198
lclavicle 3.93594e-014 -2.46493e-014
lhumerus -34.2184 0.406071 69.7515
lradius 34.5921
lwrist -14.962
lhand -25.5551 19.962
lfingers 7.12502
lthumb 0.975417 49.9395
rfemur -26.782 13.209 3.26828
rtibia 33.0111
rfoot -6.82818 -9.11176
rtoes -4.19808
lfemur -31.4799 -1.51991 -7.37929
ltibia 36.0048
lfoot -11.7788 -0.530977
ltoes -3.52201
351
root 2.85414 18.3133 -3.61674 -175.222 133.421 -186.345
lowerback 16.1801 3.31739 -1.91409
upperback 6.97577 4.19214 -2.08022
thorax -1.60422 2.15935 -1.82396
lowerneck -0.427624 0.787373 -5.30779
upperneck 32.6061 1.15094 5.7527
head 10.3938 0.790235 3.16875
rclavicle 2.22639e-014 2.70347e-014
rhumerus -39.0692 -0.853055 -75.1753
rradius 42.8488
rwrist 17.4009
rhand -18.8924 5.7121
rfingers 7.12502
rthumb 7.40899 -24.1382
lclavicle 2.22639e-014 2.70347e-014
lhumerus -34.4705 0.230478 70.1869
lradius 34.2785
lwrist -15.4945
lhand -24.6968 19.9555
lfingers 7.12502
lthumb 1.80443 49.9276
rfemur -26.5688 12.7578 3.24115
rtibia 33.3248
rfoot -6.50047 -8.89954
rtoes -6.81889
lfemur -31.8947 -1.64362 -7.53103
ltibia 36.0868
lfoot -11.7311 -0.618766
ltoes -3.75362
352
root 2.84743 18.3063 -3.6531 -174.961 133.142 -186.404
lowerback 16.2472 3.16489 -1.85153
upperback 6.9557 3.99875 -2.09122
thorax -1.65914 2.06465 -1.84218
lowerneck -0.479301 0.736841 -5.54483
upperneck 32.5892 1.11175 5.72391
head 10.3996 0.740157 3.19719
rclavicle -9.06458e-014 4.53229e-014
rhumerus -39.313 0.144063 -75.6608
rradius 42.8544
rwrist 18.1952
rhand -19.7064 6.29952
rfingers 7.12502
rthumb 6.62325 -23.5769
lclavicle -9.06458e-014 4.53229e-014
lhumerus -34.7543 0.210327 70.5652
lradius 33.887
lwrist -16.2182
lhand -23.9784 19.9622
lfingers 7.12502
lthumb 2.49827 49.9273
rfemur -26.533 12.4471 3.23928
rtibia 33.636
rfoot -6.79827 -8.81422
rtoes -7.72251
lfemur -32.5127 -1.60488 -7.57823
ltibia 36.2311
lfoot -11.6711 -0.797984
ltoes -4.17868
353
root 2.83726 18.2931 -3.68777 -174.65 132.903 -186.436
lowerback 16.2483 3.1602 -1.74648
upperback 6.97635 4.00782 -2.18126
thorax -1.62397 2.07337 -1.99601
lowerneck -0.418078 0.52541 -5.42151
upperneck 32.3346 0.826518 5.59526
head 10.3118 0.610476 3.09584
rclavicle 4.96962e-014 -2.70347e-014
rhumerus -39.613 0.649225 -76.1459
rradius 43.0234
rwrist 18.6151
rhand -19.7557 6.49743
rfingers 7.12502
rthumb 6.57568 -23.3805
lclavicle 4.96962e-014 -2.70347e-014
lhumerus -34.8091 -0.290101 71.0123
lradius 33.5699
lwrist -16.8567
lhand -23.4789 20.0769
lfingers 7.12502
lthumb 2.98058 50.0358
rfemur -26.5455 12.2889 3.18559
rtibia 33.9254
rfoot -7.37491 -8.86052
rtoes -7.64774
lfemur -33.183 -1.46283 -7.6415
ltibia 36.4193
lfoot -11.6249 -1.04239
ltoes -4.26989
354
root 2.82624 18.2784 -3.72148 -174.47 132.72 -186.491
lowerback 16.3314 3.18209 -1.67719
upperback 7.04078 4.04767 -2.21738
thorax -1.59092 2.09656 -2.0822
lowerneck -0.395915 0.336634 -5.39994
upperneck 32.1183 0.567031 5.53916
head 10.2428 0.488198 3.04336
rclavicle -4.77083e-015 1.59028e-015
rhumerus -39.864 1.15341 -76.5503
rradius 43.364
rwrist 18.4336
rhand -19.5478 6.28004
rfingers 7.12502
rthumb 6.77633 -23.5915
lclavicle -4.77083e-015 1.59028e-015
lhumerus -34.8862 -0.775242 71.5266
lradius 33.3119
lwrist -17.2865
lhand -23.0448 20.1138
lfingers 7.12502
lthumb 3.39979 50.0664
rfemur -26.4597 12.1457 3.20885
rtibia 34.1996
rfoot -7.86353 -8.76252
rtoes -8.14869
lfemur -33.7137 -1.34676 -7.67415
ltibia 36.6196
lfoot -11.6118 -1.24795
ltoes -4.09379
355
root 2.81661 18.2716 -3.75361 -174.431 132.55 -186.661
lowerback 16.4795 3.23499 -1.49062
upperback 7.02481 4.13786 -2.2834
thorax -1.66542 2.14602 -2.2817
lowerneck -0.140004 0.124294 -5.15459
upperneck 31.9364 0.253371 5.47769
head 10.1463 0.366517 2.9443
rclavicle 4.37326e-015 3.97569e-015
rhumerus -40.3366 1.45412 -76.9929
rradius 43.7272
rwrist 18.505
rhand -19.7868 6.00448
rfingers 7.12502
rthumb 6.54559 -23.8744
lclavicle 4.37326e-015 3.97569e-015
lhumerus -35.0007 -1.31342 71.9183
lradius 32.8838
lwrist -17.7829
lhand -22.4755 20.2704
lfingers 7.12502
lthumb 3.94962 50.2136
rfemur -26.3246 12.0665 3.35828
rtibia 34.4662
rfoot -8.26548 -8.84721
rtoes -8.94088
lfemur -34.1579 -1.26959 -7.6093
ltibia 36.8125
lfoot -11.5318 -1.49299
ltoes -4.14253
356
root 2.80632 18.2643 -3.7834 -174.328 132.374 -186.753
lowerback 16.4692 3.05065 -1.65304
upperback 7.16893 3.88564 -2.14127
thorax -1.53499 2.01774 -1.99152
lowerneck -0.245327 0.177105 -5.50745
upperneck 31.7916 0.395597 5.31349
head 10.1044 0.370646 2.95425
rclavicle 1.10524e-013 -2.78299e-014
rhumerus -40.2363 2.79083 -77.3983
rradius 43.9463
rwrist 18.6977
rhand -20.1771 5.70242
rfingers 7.12502
rthumb 6.1688 -24.1878
lclavicle 1.10524e-013 -2.78299e-014
lhumerus -35.2274 -0.629691 72.3596
lradius 32.4663
lwrist -18.5025
lhand -21.7355 20.6962
lfingers 7.12502
lthumb 4.66413 50.6248
rfemur -26.1881 11.8663 3.47726
rtibia 34.7199
rfoot -8.66506 -9.0869
rtoes -9.60891
lfemur -34.5884 -1.19959 -7.59327
ltibia 36.9896
lfoot -11.472 -1.78512
ltoes -4.26433
357
root 2.79313 18.2472 -3.81366 -174.02 132.226 -186.577
lowerback 16.4631 3.02812 -1.79526
upperback 7.28351 3.84243 -2.18847
thorax -1.41625 1.99675 -1.94917
lowerneck -0.161471 0.06808 -5.48437
upperneck 31.5766 0.245358 5.25211
head 10.0176 0.296289 2.90841
rclavicle -3.57812e-014 5.1684e-014
rhumerus -40.3822 3.56732 -77.8825
rradius 44.2402
rwrist 18.7288
rhand -20.396 5.43504
rfingers 7.12502
rthumb 5.9575 -24.4612
lclavicle -3.57812e-014 5.1684e-014
lhumerus -35.3229 -0.685421 72.8146
lradius 32.1189
lwrist -18.8915
lhand -21.0898 21.1256
lfingers 7.12502
lthumb 5.28764 51.0397
rfemur -26.0604 11.4891 3.43248
rtibia 34.952
rfoot -9.01386 -9.3032
rtoes -8.16353
lfemur -35.0204 -1.20004 -7.75313
ltibia 37.1376
lfoot -11.5 -1.94134
ltoes -3.75927
358
root 2.78047 18.2363 -3.84589 -173.797 132.075 -186.453
lowerback 16.5547 3.00997 -1.83322
upperback 7.39915 3.81755 -2.23496
thorax -1.34057 1.98707 -1.97359
lowerneck -0.122647 -0.0463677 -5.54443
upperneck 31.38 0.0737253 5.2848
head 9.94685 0.212595 2.91085
rclavicle 8.82604e-014 -3.4191e-014
rhumerus -40.5234 4.3152 -78.3716
rradius 44.5228
rwrist 18.6494
rhand -20.0822 5.21363
rfingers 7.12502
rthumb 6.26042 -24.6739
lclavicle 8.82604e-014 -3.4191e-014
lhumerus -35.3693 -0.830831 73.2839
lradius 31.7501
lwrist -19.129
lhand -20.6496 20.9672
lfingers 7.12502
lthumb 5.71268 50.8702
rfemur -25.8817 11.0059 3.50383
rtibia 35.1619
rfoot -9.27012 -9.71008
rtoes -10.1944
lfemur -35.406 -1.20842 -7.90096
ltibia 37.2542
lfoot -11.4927 -1.99668
ltoes -3.07784
359
root 2.76958 18.2362 -3.87702 -173.748 131.932 -186.522
lowerback 16.7034 2.95129 -1.72115
upperback 7.52133 3.76066 -2.27688
thorax -1.2796 1.96484 -2.07486
lowerneck -0.187484 -0.13963 -5.59287
upperneck 31.2121 -0.0666945 5.31535
head 9.90469 0.143932 2.91461
rclavicle 7.27552e-014 -3.89618e-014
rhumerus -40.5155 4.9882 -78.8846
rradius 44.6056
rwrist 18.8223
rhand -19.4929 5.15
rfingers 7.12502
rthumb 6.82938 -24.7198
lclavicle 7.27552e-014 -3.89618e-014
lhumerus -35.4212 -1.03393 73.7319
lradius 31.4139
lwrist -19.4745
lhand -20.194 20.4718
lfingers 7.12502
lthumb 6.15255 50.3625
rfemur -25.699 10.6651 3.6927
rtibia 35.356
rfoot -9.67619 -10.262
rtoes -10.9943
lfemur -35.7186 -1.12609 -7.9446
ltibia 37.3413
lfoot -11.4111 -2.11688
ltoes -3.38688
